<?xml version="1.0" encoding="utf-8"?>
<!-- Generator: Adobe Illustrator 16.0.0, SVG Export Plug-In . SVG Version: 6.00 Build 0)  -->
<!DOCTYPE svg PUBLIC "-//W3C//DTD SVG 1.1//EN" "http://www.w3.org/Graphics/SVG/1.1/DTD/svg11.dtd">
<svg version="1.1" id="Layer_1" xmlns="http://www.w3.org/2000/svg" xmlns:xlink="http://www.w3.org/1999/xlink" x="0px" y="0px"
	 width="400px" height="400px" viewBox="0 0 400 400" enable-background="new 0 0 400 400" xml:space="preserve">
<path fill="#146E91" d="M288.137,261.402l-2.996,1.69c0.195,2.171,0.36,4.355,0.479,6.552c-0.433-4.262-1.034-8.47-1.748-12.623
	l0.522-0.818c0.252,1.979,0.461,3.974,0.652,5.971c0.656-5.621-1.06-8.08,1.359-12.424
	C287.092,253.59,287.668,257.473,288.137,261.402z M265.957,113.264c-5.941,0.909-2.099-3.77-5.084,1.267
	C263.396,117.028,263.837,113.349,265.957,113.264z M108.751,184.695c-1.561-1.284-0.71-2.888-1.709-4.2l1.168,4.849
	L108.751,184.695z M138.416,117.196c-0.617,3.239-1.197,6.48-1.73,9.722l0.678-0.386L138.416,117.196z M103.221,235.664
	c5.97-0.047,1.528,3.908,5.191-0.541C106.364,232.43,105.315,235.865,103.221,235.664z M158.739,70.104l-3.115-0.716l-0.303,5.159
	C158.426,74.013,156.965,72.138,158.739,70.104z M255.837,109.085c0.88-3.47-1.659-2.102-3.339-2.792
	C253.32,108.06,254.578,108.575,255.837,109.085z M112.681,240.719c-1.175,3.291,1.475,2.087,3.068,2.736
	C115.05,241.785,113.874,241.259,112.681,240.719z M285.271,173.902l-3.825-4.993l-0.101,1.002
	C283.45,170.622,283.634,172.889,285.271,173.902z M166.509,72.562l-1.626,3.618l1.785-0.772L166.509,72.562z M262.337,338.034
	l3.194,0.923c0.833-2.304,1.604-4.601,2.293-6.908C264.193,332.947,265.171,335.352,262.337,338.034z M278.258,170.733
	c-0.122,1.317-0.007,2.752-0.865,2.907C278.698,174.49,279.513,174.45,278.258,170.733z M277.393,173.641l-0.808-0.561
	c0.166,0.213,0.278,0.402,0.505,0.626C277.227,173.733,277.288,173.657,277.393,173.641z M296.779,226.733
	c-0.036,1.283-0.13,2.545-0.293,3.778c-2.379-5.004-3.421,2.257-5.599,1.748c0.66,3.137,1.287,6.292,1.839,9.479
	c-1.464-2.656-2.517-8.984-5.444-13.729c-3.046,2.178-7.232-1.121-9.06,1.362c0.094,0.995,0.188,1.987,0.277,2.979
	c1.37,0.271,2.21-1.965,3.595,1.312c-1.392,1.773-0.97,3.655-0.779,5.995c-0.916-0.075-1.622-0.739-2.318-1.315
	c0.094,1.168,0.191,2.321,0.285,3.468c0.522,0.332,1.031,0.581,1.442,0.652c-0.364,0.234-0.873,0.127-1.374,0.174
	c0.126,1.485,0.256,2.952,0.4,4.391c1.187,0.188,2.632-0.27,3.324-0.144c-0.656,0.833-1.958,1.752-3.04,2.779
	c0.307,2.74,0.668,5.365,1.137,7.795c-0.649-0.31-1.107-1.06-1.45-2.08l-4.816-3.119c-0.119,2.131,1.283,3.141,2.016,4.651
	l0.086-0.22c0,0.141-0.014,0.281-0.014,0.422c0.371,0.857,0.526,1.882,0.061,3.363c0.011-0.663-0.039-1.298-0.115-1.907
	c-0.062,2.495-0.141,4.99-0.281,7.484c-0.328-1.968-0.663-3.922-1.045-5.861l1.113-2.795c-0.544-2.228-1.763-3.562-3.591-2.368
	c2.297,3.147,0.087,6.237-0.512,8.919c0.079,0.862,0.151,1.724,0.213,2.596c0.354,0.682,1.002,1.32,2.123,1.904l-2.044-0.498
	c0.09,1.698,0.145,3.426,0.119,5.206c0.292,0.411,0.53,0.931,0.659,1.645c-0.165-0.512-0.41-0.775-0.688-0.941
	c-0.141,5.523-0.987,11.526-3.338,18.496c-2.222,0.774-2.996,3.738-4.01,7.146c-0.876,3.018-1.997,6.356-4.002,8.682
	c-0.443,2.217-0.833,4.518-1.07,7.06c1.528,1.063,3.778-1.237,5.736-2.557c2.304-4.056,3.165-8.948,5.234-12.355
	c0.948,4.737-0.927,10.582-3.486,16.242c-2.538,5.707-5.747,11.177-7.037,16.415c-2.235-2.65,2.826-7.925,2.79-11.382
	c-1.568,1.694-3.205,3.31-4.856,4.882c1.532-3.368,2.881-6.785,4.031-10.236c-1.216-0.241-2.156-1.038-3.083-1.196
	c-1.302,4.82-3.829,9.771-7.152,14.439c-0.148,0.418-0.285,0.84-0.44,1.258c-1.771,4.745-4.143,9.511-9.85,13.928
	c-3.718-1.694-5.21,5.036-9.835,5.321c-1.641,5.769-7.002,10.073-12.868,13.329c-5.884,3.288-12.232,5.609-16.302,8.451
	c8.183-14.869,24.638-26.11,34.833-39.327c-0.84-0.228-1.24-0.967-2.102-0.347c4.067-6.734,8.479-13.3,11.649-20.287
	c3.197-6.93,5.108-14.288,4.423-21.253l1.017,0.22c1.5-5.268-2.127-5.92-2.419-10.362c0.931,0.739,1.024,3.335,2.989,2.654
	c0.62-1.558-0.209-9.054,2.6-12.248c-1.615-3.054-3.822-1.157-4.651-5.083l3.998-1.619c-0.678-3.685,0.913-5.79-1.236-9.771
	l-2.059,2.798c1.796-5.841-1.362-11.364,1.868-16.639l-1.331-0.191c0.722-3.137,1.226-6.619,1.594-10.001
	c0.35-3.068,0.53-6.129,0.494-9.345c-0.008-0.981-0.055-1.951-0.087-2.928c-1.828-6.173-4.381-11.991-7.524-17.178l0.931-0.485
	c-3.386-9.54-6.691-7.676-11.051-14.679c1.41,0.499,3.861,4.601,4.669,1.976c-0.912-2.924-8.757-14.439-9.864-21.551
	c-4.272-3.851-4.06,0.744-8.699-5.205l1.471-5.238c-4.254-5.635-5.098-10.012-10.885-15.46l1.146,5.886
	c-4.424-10.767-12.775-18.773-14.877-29.6l-1.381,0.231l-6.969-17.353l-1.813-4.602l-0.901-2.333l-0.45-1.177
	c-0.09-0.262-0.018-0.161-0.029-0.265c0.069-0.49,0.058-1.065,0.051-1.695c-0.065-2.13-0.325-4.966-0.411-8.534
	c-0.295-0.618-0.303-1.262-0.591-2.042c0.281,0.004,1.133,0.017,1.133,0.027c0-0.023,0-0.042,0-0.065l-0.261-2.443
	c-0.241-0.867-0.48-2.142-0.465-3.602c0.007-0.729-0.035-1.496,0.026-2.253l0.066-1.114l0.039-0.534
	c-0.021-0.025-0.133,0.24-0.191,0.35c-1.067,2.342-2.383,5.727-2.96,10.849c0.177-3.252,0.842-3.254,0.849-7.658
	c-1.118-0.357-1.778,3.488-1.947,6.314c-0.271,3.011-0.11,5.114-1.264,4.337c0.245,2.468,0.739,2.772,1.017,3.238
	c0.31,0.398,0.429,0.916,0.501,2.718c-0.49-1.372-1.435-3.791-2.34-4.707c-0.851-1.02-1.9-0.079-1.449,3.125
	c2.026,2.345,1.15-0.398,2.553,2.985c-1.331-1.44-2.704-2.154-4.189-2.205c-2.91,7.439-5.736,14.766-5.718,22.18l-0.966-0.384
	c-1.986,4.213,1.42,5.551,1.013,9.438c-0.775-0.869-0.476-3.085-2.477-2.979c-0.764,1.179-1.269,7.602-4.625,9.225
	c0.894,2.88,3.393,2.087,3.31,5.424l-4.135-0.047c-0.224,3.013-2.221,4.027-1.211,7.667l2.636-1.336
	c-3.155,3.672-1.669,8.68-6.154,11.096l1.186,0.607c-6.263,7.544-10.336,18.211-14.202,25.095
	c-0.577,6.529-3.551,14.399,0.173,18.546c-1.352-0.608-0.66-2.684-2.726-2.183c-2.535,5.969,4.737,4.91,2.239,9.493
	c2.833,1.305,2.073-3.65,4.067-0.946c-1.943,2.414-7.672,3.636-3.155,7.674c2.837-0.473,0.389-2.574,3.555-0.829
	c-3.977,1.806-6.028,5.296-7.132,8.908c-0.415,1.316-0.681,2.606-0.926,3.851c0.18,0.115,0.35,0.23,0.504,0.35
	c-0.205-0.087-0.356-0.108-0.541-0.169c-0.408,2.095-0.732,3.998-1.417,5.277l3.241-1.672c1.813,2.779-1.233,7.138,0.328,8.501
	c0.674,0.213,1.222,0.552,1.706,0.959l0.674-0.605c-0.173,0.271-0.292,0.544-0.422,0.814c1.525,1.449,2.221,3.753,3.238,5.858
	c1.334,2.816,3.208,5.148,7.106,3.415l-0.674,3.602l3.212-0.35l-1.705,1.637c3.101,2.715,5.458,0.371,7.715-1.728
	c2.326-2.131,4.507-4.062,7.546-1.266c-1.266,1.054-2.542,2.092-3.944,2.07c-0.837,1.961,1.442,2.884,3.695,3.338l-1.958,3.083
	c0.97,1.229,2.593,0.028,3.602-0.267c-5.898,3.537,2.563,5.988,2.217,8.367l1.705-3.237c-1.258,3.465-0.364,5.105,0.768,8.268
	l2.863-2.979c0.238,1.856,1.626,5.336,3.98,3.228l-2.766,5.064c4.554-1.763,1.248,1.979,6.252,1.172l0.35-3.796
	c1.143,3.551,0.364,8.011,2.794,10.29c3.847,1.661,5.022-0.166,8.562,2.372c-3.944,0.652-9.377,3.476-12.078,2.455
	c-9.695-1.655-20.107-4.593-29.885-9.778c-8.526-4.488-16.559-10.873-22.328-18.838c-2.661-2.538-5.199-5.281-7.568-8.216
	c-1.994-1.402-4.096-2.235-6.212-1.576c-0.544-4.092-2.895-7.906-5.891-13.065c-0.88,0.202,0.97-0.191,2.102-1.233
	c-0.372-0.786-0.768-1.558-1.114-2.357c-0.184-0.418-0.332-0.854-0.508-1.276c-1.179-0.812-2.365-1.583-3.519-2.47l1.11-0.786
	c-2.567-0.565-3.443-3.137-4.078-5.769c-0.631-2.643-1.063-5.328-3.169-6.536l3.184-0.102c-3.328-5.371-2.124-13.449-6.172-18.026
	c3.458,1.377,2.221-2.448,2.228-5.038c1.305,0.923,2.628,1.824,3.962,2.7c-0.4-0.999-0.242-1.626,0.101-2.134
	c0.061-1.377,0.224-2.729,0.335-4.096c-0.328,0.33-0.638,0.793-0.991,1.218c0.307-1.676,0.674-2.293,1.082-2.341
	c0.508-5.554,1.399-10.997,2.614-16.309c-0.879-0.602-1.586-1.334-1.914-2.405c0.789-0.195,1.759-0.09,2.516-0.323
	c0.246-0.979,0.541-1.929,0.804-2.896c-1.021-0.155-1.698,0.748-2.52,1.464c-0.202-7.11-0.04-16.278,4.084-22.426
	c0.771,4.209,3.847-0.29,5.726,0.819l0.93-7.078c0.667,2.315-0.137,7.007,1.208,11.229c4.175-0.449,7.593,5.035,10.257,1.067
	c-1.269-2.365-3.346,0.33-3.792-3.018c1.81-0.697,1.939-2.12,2.412-3.769c1.68,0.766,1.907,2.866,3.743,3.075
	c0.602-2.147-1.244-4.126-2.43-4.766c0.836-0.06,1.853,1.11,3.007-0.018c1.478-3.07-2.845-3.193-4.016-3.829
	c2.188-0.865,8.663-0.597,4.903-5.026l4.114,4.24c1.021-2.302-2.286-3.955-0.047-6.488c-0.912,2.668-0.439,5.448,2.394,5.183
	c-2.26-4.855,6.609-5.657,1.284-10.146l5.541,3.111c2.679-4.33-3.18-3.47-3.165-7.328c0.249,1.584,2.116,1.067,2.033,2.815
	c1.813,0.352,3.454-2.583,4.11-5.013c2.639-9.729,8.559-15.755,8.249-26.876c-1.572-0.979-3.433,0.692-5.203,1.489
	c-1.825,2.93-2.531,6.622-4.583,8.842c-1.633-7.707,6.403-16.379,6.068-24.552c2.762,2.118-0.75,6.176-0.216,8.864l3.627-3.69
	l-2.099,8.032c1.799,0.447,3.144,1.933,4.424,0.952c4.543-9.08,0.556-16.082,7.031-24.702c3.937,0.799,2.462-4.806,6.158-5.971
	c-1.889-7.54,4.315-14.12,8.382-19.962c-0.252-0.25-0.559-0.467-0.937-0.629l1.489-0.171c0.952-1.434,1.749-2.823,2.225-4.17
	c0.292,1.28,0.469,2.562,0.591,3.845l1.431-0.164c-4.261-4.505,0.678-3.095-2.762-9.175l-3.393,2.401
	c2.354-4.458,6.602-6.373,7.69-10.946c0.033-1.675-0.108-2.931-0.292-4.025l-0.512-1.347c0.086,0.086,0.213,0.135,0.31,0.209
	c-0.407-2.085-0.764-3.794,0.029-7.084l-0.332-0.324c0.151-0.074,0.303-0.15,0.458-0.224c0.022-0.081,0.029-0.141,0.051-0.224
	c0.015,0.058,0.04,0.114,0.054,0.171c1.918-0.939,3.955-1.815,4.308-0.043l-1.41,3.703l-2.517-2.46
	c0.97,2.859,2.603,5.704,3.887,8.263c1.042,0.559,1.694,1.531,1.453,3.424c0.18,0.593,0.313,1.163,0.35,1.69
	c5.132,25.856,20.109,50.042,30.954,75.44c3.184,4.77,7.719,10.504,11.955,9.365c0.75,4.635,3.667,9.181,7.859,14.768
	c1.273-0.438-3.385,1.007-2.13,3.935l7.171,3.97l-0.861,1.089c5.52,0.387,6.68,10.657,11.742,12l-2.996,1.105
	c5.451,4.946,8.477,14.444,14.67,17.839c-3.861-0.027-0.663,3.744,0.812,6.693l-5.048-1.267c2.979,3.122-1.06,4.57,1.694,7.888
	c-1.355-0.989-2.927-2.248-3.54-1.694c-0.119,5.082,5.217,3.55,4.113,8.703l3.249-1.698c-1.907,7.38,0.241,7.67-0.437,15.496
	c3.213,1.24,6.619-0.227,9.027,2.87c-1.196,1.395-3.854,1.548-1.424,5.927c1.367-0.051,1.359-1.828,1.72-3.326
	c2.066,4.374,4.276,9.493,5.736,14.933c0.729,2.719,1.272,5.498,1.554,8.274C296.703,223.968,296.786,225.393,296.779,226.733z
	 M279.679,255.229c-0.371-1.157-0.599-2.643-0.761-4.286C278.046,252.201,277.901,253.618,279.679,255.229z M278.564,246.43
	c-0.079-1.082-0.162-2.156-0.271-3.177c-0.13,0.181-0.248,0.4-0.346,0.707C277.872,245.222,278.136,245.968,278.564,246.43z
	 M277.883,240.48c-0.151-0.743-0.331-1.428-0.562-2.008c-0.032,0.331-0.082,0.659-0.115,0.991
	C277.39,239.86,277.635,240.167,277.883,240.48z M176.633,395.388l0.202-5.091l-4.867,2.452
	C170.406,394.695,173.734,395.081,176.633,395.388z M183.872,379.524c-6.688,4.474-0.22,6.342-0.224,9.312l3.494-6.926l-2.989,3.991
	C178.695,385.845,182.614,381.104,183.872,379.524z M192.258,376.352c0.379,1.287-1.254,3.735,0.646,3.847
	C196.556,378.706,194.151,376.475,192.258,376.352z M254.77,334.706c1.053-1.468,2.084-2.949,3.068-4.456l-2.196,0.93
	L254.77,334.706z"/>
</svg>
