<?xml version="1.0" encoding="utf-8"?>
<!-- Generator: Adobe Illustrator 16.0.0, SVG Export Plug-In . SVG Version: 6.00 Build 0)  -->
<!DOCTYPE svg PUBLIC "-//W3C//DTD SVG 1.1//EN" "http://www.w3.org/Graphics/SVG/1.1/DTD/svg11.dtd">
<svg version="1.1" id="Layer_1" xmlns="http://www.w3.org/2000/svg" xmlns:xlink="http://www.w3.org/1999/xlink" x="0px" y="0px"
	 width="250px" height="250px" viewBox="0 0 250 250" enable-background="new 0 0 250 250" xml:space="preserve">
<g>
	<path fill="#F1F1F1" d="M125,250c-33.389,0-64.779-13.001-88.388-36.611C13.002,189.78,0,158.389,0,125
		c0-33.388,13.002-64.779,36.612-88.388C60.221,13.002,91.611,0,125,0s64.779,13.002,88.388,36.612
		C236.998,60.221,250,91.612,250,125c0,33.389-13.002,64.78-36.612,88.389C189.779,236.999,158.389,250,125,250z"/>
	<path fill="#CF0A2C" d="M139.848,90.915l-8.125-8.125l36.726-6.41l-6.408,36.726l-8.135-8.134l-28.215,28.221l-14.059-14.06
		L139.848,90.915z M90.014,140.756l-5.821,5.822v41.463c6.078,3.942,12.761,7.029,19.88,9.091v-42.315l0,0L90.014,140.756z"/>
	<path fill="#555555" d="M174.548,217.734l-97.864-97.871V31.616c6.284-3.257,12.937-5.9,19.881-7.847v87.857l94.852,94.859
		C186.188,210.752,180.542,214.525,174.548,217.734z"/>
</g>
</svg>
