<?xml version="1.0" encoding="utf-8"?>
<!-- Generator: Adobe Illustrator 16.0.0, SVG Export Plug-In . SVG Version: 6.00 Build 0)  -->
<!DOCTYPE svg PUBLIC "-//W3C//DTD SVG 1.1//EN" "http://www.w3.org/Graphics/SVG/1.1/DTD/svg11.dtd">
<svg version="1.1" id="Layer_1" xmlns="http://www.w3.org/2000/svg" xmlns:xlink="http://www.w3.org/1999/xlink" x="0px" y="0px"
	 width="250px" height="250px" viewBox="0 0 250 250" enable-background="new 0 0 250 250" xml:space="preserve">
<g>
	<path fill="#006837" d="M183.657,95.02c4.609-2.936,8.602-6.458,12.692-10.077c11.873-10.507,23.3-21.519,34.519-32.718
		c4.568-4.561-2.503-11.631-7.07-7.071c-12.934,12.91-26.166,25.527-39.978,37.499c-6.935,6.011-20.464,10.208-21.688,20.683
		c-1.272,10.885,13.307,10.838,20.391,10.801c5.693-0.03,11.384-0.43,17.069-0.704c1.015-0.049,2.101-0.123,3.209-0.189
		c-6.026,5.31-14.166,7.202-22.646,8.517c-7.975,1.237-15.181,2.872-22.335,6.86c-7.017,3.912-13.034,11.099-9.505,19.418
		c3.812,8.982,13.934,9.062,22.282,8.398c5.411-0.43,21.783-4.703,22.87,4.029c1.524,12.245-16.307,7.887-22.551,5.971
		c-10.78-3.309-22.13-4.207-31.119,4.052c-6.521,5.99-16.153,16.432-11.834,26.091c3.266,7.3,10.959,7.453,17.78,6.426
		c9.004-1.356,17.25-2.451,26.442-2.106c8.964,0.336,17.873,1.402,26.55,3.706c4.109,1.091,8.491,2.664,11.871,5.289
		c-12.938-1.148-25.923-1.202-38.94-1.05c-17.733,0.207-35.466,0.278-53.198,0.558c-16.259,0.257-32.463,0.083-48.675,1.479
		c-12.128,1.045-24.932,2.628-37.104,0.66c11.688-14.244,26.519-25.692,39.278-38.93c16.067-16.667,32.298-32.972,49.144-48.867
		c16.973-16.016,33.91-31.988,51.575-47.25c8.373-7.234,16.784-14.492,25.648-21.121c7.201-5.384,14.733-10.901,19.315-18.826
		c1.487-2.571,0.264-6.806-2.988-7.345c-14.541-2.411-29.148-1.657-43.775-0.55c-15.278,1.156-30.393,1.664-45.712,1.765
		c-33.066,0.22-66.159,0.865-99.176-1.394c-6.439-0.44-6.397,9.562,0,10c31.722,2.17,63.522,1.677,95.294,1.423
		c15.385-0.123,30.616-0.312,45.962-1.513c12.18-0.952,24.59-2.048,36.819-1.052c-4.229,4.329-9.457,7.836-14.184,11.408
		c-8.876,6.71-17.286,14.094-25.701,21.365c-17.663,15.261-34.551,31.3-51.523,47.314c-16.786,15.839-32.899,32.146-48.909,48.754
		c-14.696,15.245-31.642,28.097-44.075,45.443c-1.946,2.715,0.128,6.479,2.988,7.345c13.604,4.122,28.207,2.955,42.164,1.796
		c16.01-1.33,31.853-1.586,47.911-1.817c17.734-0.256,35.47-0.352,53.204-0.573c17.792-0.223,35.728-0.641,53.388,1.929
		c3.592,0.522,7.309-2.128,6.15-6.15c-6.479-22.511-39.85-23.695-58.647-23.931c-5.428-0.067-10.764,0.27-16.098,1.248
		c-2.959,0.544-11.659,3.569-13.739,0.422c-1.886-2.853,4.847-9.787,6.459-11.54c4.201-4.569,9.016-7.365,15.327-7.08
		c4.837,0.218,9.686,2.414,14.311,3.688c5.601,1.542,11.205,1.86,16.896,0.677c9.7-2.017,14.956-11.649,12.965-20.998
		c-2.163-10.153-12.738-12.147-21.457-11.715c-4.828,0.239-9.622,0.954-14.451,1.209c-3.53,0.186-7.864,0.619-9.752-2.86
		c-1.77-3.261,6.363-7.032,8.211-7.946c4.337-2.146,9.4-3.359,13.192-3.877c15.407-2.105,30.459-6.009,38.28-20.777
		c1.46-2.756,0.27-6.572-2.988-7.345c-7.828-1.854-16.738-0.282-24.662,0.071c-4.619,0.206-9.257,0.335-13.873-0.004
		c-0.997-0.073-1.969-0.237-2.929-0.481c0.022-0.029,0.033-0.05,0.059-0.081C175.44,99.804,179.869,97.432,183.657,95.02z"/>
	<path fill="#FBB03B" d="M157.999,51.667C113.603,47.788,69.089,54.17,24.666,51c-6.438-0.459-6.394,9.543,0,10
		c41.898,2.99,83.877-2.513,125.763,0.105c-1.823,2.321-4.228,4.298-6.391,6.117c-4.555,3.829-9.654,7.017-14.582,10.335
		c-5.864,3.949-10.947,8.869-16.252,13.525c-7.082,6.216-14.164,12.43-21.111,18.797c-23.432,21.479-41.915,47.632-63.791,70.615
		c-3.121-32.689,3.208-65.651,1.563-98.432c18.506-6.223,39.018-4.228,58.729-3.022c-6.226,3.483-12.654,6.632-18.912,10.046
		c-10.912,5.953-20.183,14.886-31.54,19.93c-4.249,1.887-2.511,7.938,1.194,9.139c5.806,1.881,11.902,1.995,17.991,1.82
		c-7.209,8.886-15.815,16.68-22.312,26.168c-3.654,5.337,5.016,10.331,8.635,5.047c8.327-12.159,20.104-21.487,28-34
		c2.033-3.222-0.615-7.554-4.317-7.523c-3.631,0.03-7.364,0.311-11.089,0.403c6.121-4.187,12.042-8.767,18.485-12.349
		c10.935-6.079,22.444-11.133,32.46-18.737c3.738-2.838,2.873-9.295-2.523-9.317c-26.553-0.108-55.937-6.172-81.329,4.179
		c-1.982,0.808-3.832,2.432-3.671,4.821c2.573,38.042-5.773,76.074,0.179,113.996c0.607,3.869,5.909,4.601,8.356,2.206
		c25.61-25.051,45.93-54.971,72.37-79.208c12.096-11.087,24.192-22.933,37.826-32.082c8.947-6.004,22.396-13.955,24.423-25.582
		C163.41,54.612,161.441,51.967,157.999,51.667z"/>
</g>
</svg>
