<?xml version="1.0" encoding="utf-8"?>
<!-- Generator: Adobe Illustrator 16.0.0, SVG Export Plug-In . SVG Version: 6.00 Build 0)  -->
<!DOCTYPE svg PUBLIC "-//W3C//DTD SVG 1.1//EN" "http://www.w3.org/Graphics/SVG/1.1/DTD/svg11.dtd">
<svg version="1.1" id="Layer_1" xmlns="http://www.w3.org/2000/svg" xmlns:xlink="http://www.w3.org/1999/xlink" x="0px" y="0px"
	 width="500px" height="500px" viewBox="0 0 500 500" enable-background="new 0 0 500 500" xml:space="preserve">
<path fill-rule="evenodd" clip-rule="evenodd" d="M228.364,272.331c3.468,3.592,5.381,7.86,5.256,13.182
	c0,5.266-1.788,9.593-5.256,13.186c-3.458,3.461-7.801,5.384-12.808,5.384c-4.885,0-9.156-2.041-12.631-5.574
	c-3.533-3.832-5.262-8.041-5.262-12.995c0-5.138,1.798-9.409,5.262-13.063c3.596-3.652,7.746-5.506,12.631-5.506
	C220.563,266.943,225.024,268.797,228.364,272.331L228.364,272.331z M406.608,8.177c-63.556,47.774-95.5,106.296-95.5,175.74
	c0,27.703,0.125,42.083,0.321,43.542c-18.942-25.006-39.251-51.708-60.91-80.402c-11.516-15.501-26.745-31.932-46.164-49.362
	c-21.049-19.311-38.497-33.05-52.24-41.406c-24.133-13.52-43.447-24.343-58.486-32.493c2.172,18.973,4.888,35.839,8.852,50.471
	c5.686,22.785,19.058,46.885,39.976,72.016c20.613,25.13,41.843,42.64,63.131,52.581c27.601,13.179,50.806,22.778,69.805,28.595
	c-40.961,4.455-70.124,13.615-87.321,27.722c-28.224,23.024-42.269,46.673-42.269,70.747c0,18.319,9.527,34.034,28.772,46.853
	c14.425,9.897,32.243,17.082,53.66,22.154c-4.642,5.823-6.988,13.186-7.119,22.04c0,7.792,2.355,15.043,6.745,21.906l45.626-24.196
	c3.592-1.67,5.938-2.296,7.112-1.67c1.365,0.364,2.037,1.611,1.739,3.96c-1.49,10.768-2.106,16.841-2.106,17.942
	c-0.132,2.356,1.292,3.088,3.776,2.356c36.075-12.756,61.091-23.451,74.948-32.559c3.957-2.599,6.988-6.066,8.54-10.456
	c7.303-18.319,10.758-43.023,10.758-74.335c0-23.891-10.082-47.778-30.314-72.161c-2.362-3.008-2.543-5.364-0.318-7.119
	c24.576-24.229,41.099-54.838,49.707-91.782c5.564-25.259,8.48-59.979,8.602-104.519c-0.121-1.575,0-4.57,0.066-9.495
	c0.114-4.796,0.236-8.7,0.61-11.722C406.608,17.554,406.608,12.632,406.608,8.177L406.608,8.177z M361.058,433.317
	c0-2.418-0.925-3.596-2.713-3.596c-4.344,0-17.653,3.711-39.989,11.132c-22.276,7.122-34.346,11.151-36.016,11.587
	c-1.739,1.906-2.74,5.125-2.74,9.59c0,2.599,0.634,3.714,1.926,3.714c1.372,0,13.186-3.474,35.524-10.088
	c17.644-5.142,31.131-9.101,40.419-11.827C359.814,441.729,361.058,438.262,361.058,433.317L361.058,433.317z M267.73,486.787
	c0.374-3.222,0-9.226-0.808-18.087c-1.118-10.266-1.794-16.459-1.794-18.799c0-11.21-0.122-17.332-0.496-18.569
	c-1.866,0.559-7.926,3.708-17.27,9.403c-9.472,5.318-14.849,8.231-15.967,8.231c-2.1,0-8.359-2.355-18.503-6.991
	c-10.279-4.829-16.466-7.923-18.327-9.652c-2.844-1.856-4.144-1.243-4.144,1.729c0.128,2.723,0.932,10.455,2.658,22.656
	c1.798,12.365,2.976,19.612,3.838,21.781c2.109-0.617,7.677-3.593,16.83-8.793c7.5-4.885,12.766-7.112,15.426-7.112
	c3.153,0,9.153,3.458,17.388,10.403c8.658,6.811,14.238,11.936,16.764,15.524C265.998,492.105,267.608,491.613,267.73,486.787
	L267.73,486.787z"/>
</svg>
