<?xml version="1.0" encoding="utf-8"?>
<!-- Generator: Adobe Illustrator 16.0.0, SVG Export Plug-In . SVG Version: 6.00 Build 0)  -->
<!DOCTYPE svg PUBLIC "-//W3C//DTD SVG 1.1//EN" "http://www.w3.org/Graphics/SVG/1.1/DTD/svg11.dtd">
<svg version="1.1" id="Layer_1" xmlns="http://www.w3.org/2000/svg" xmlns:xlink="http://www.w3.org/1999/xlink" x="0px" y="0px"
	 width="250px" height="250px" viewBox="0 0 250 250" enable-background="new 0 0 250 250" xml:space="preserve">
<g>
	<path fill="#EC1B2E" d="M76.282,124.933c5.302,0,8.436-2.052,10.726-3.979l7.233,7.231c-3.737,3.978-9.161,6.872-17.716,6.872
		c-14.343,0-23.501-9.16-23.501-21.694c0-12.533,9.76-21.694,22.294-21.694c14.463,0,22.659,11.453,21.692,25.793H65.559
		C66.761,122.039,70.256,124.933,76.282,124.933z M84.357,109.024c-0.842-4.219-3.855-7.229-9.04-7.229
		c-4.941,0-8.434,2.526-9.642,7.229H84.357z"/>
	<path fill="#EC1B2E" d="M117.131,148.283v-19.012c2.289,3.613,6.506,5.785,12.773,5.785c10.728,0,19.403-9.16,19.403-21.694
		c0-12.533-8.675-21.694-19.403-21.694c-6.268,0-10.485,2.171-12.773,5.789v-4.705h-12.05v53.931
		C109.087,147.113,113.106,147.647,117.131,148.283z M126.771,102.273c6.147,0,10.125,4.34,10.125,11.089
		c0,6.749-3.978,11.088-10.125,11.088c-6.146,0-9.881-4.339-9.881-11.088C116.89,106.613,120.625,102.273,126.771,102.273z"/>
	<path fill="#EC1B2E" d="M221.73,99.142v-6.389h-12.053v55.154c4.05-0.818,8.067-1.748,12.053-2.775v-30.564
		c0-8.555,3.492-12.055,9.279-12.055c2.046,0,3.611,0.486,5.18,1.327l3.854-10.359c-1.563-0.968-3.613-1.812-6.506-1.812
		C229.199,91.668,224.5,93.48,221.73,99.142z"/>
	<path fill="#EC1B2E" d="M14.583,154.513v-25.241c2.291,3.613,6.51,5.785,12.777,5.785c10.727,0,19.405-9.16,19.405-21.694
		c0-12.533-8.678-21.694-19.405-21.694c-6.267,0-10.486,2.171-12.777,5.789v-4.705H2.532v65.58
		C6.507,156.954,10.525,155.678,14.583,154.513z M24.225,102.273c6.148,0,10.122,4.34,10.122,11.089
		c0,6.749-3.974,11.088-10.122,11.088c-6.146,0-9.882-4.339-9.882-11.088C14.342,106.613,18.079,102.273,24.225,102.273z"/>
	<path fill="#EC1B2E" d="M157.497,92.752v59.799c4.035,0.089,8.052,0.074,12.055-0.039v-23.241c2.287,3.613,6.507,5.785,12.77,5.785
		c10.729,0,19.405-9.16,19.405-21.694c0-12.533-8.675-21.694-19.405-21.694c-6.263,0-10.483,2.171-12.77,5.789v-4.705H157.497z
		 M179.19,102.273c6.148,0,10.125,4.34,10.125,11.089c0,6.749-3.977,11.088-10.125,11.088c-6.146,0-9.88-4.339-9.88-11.088
		C169.311,106.613,173.045,102.273,179.19,102.273z"/>
	<path fill="#8DC641" d="M247.468,128.782c0,4.099-3.324,7.421-7.425,7.421c-4.097,0-7.42-3.322-7.42-7.421
		c0-4.103,3.323-7.424,7.42-7.424C244.144,121.358,247.468,124.68,247.468,128.782z"/>
</g>
</svg>
